PathFileType	4	(X/Y/Z)	C:/Users/beibeiliu/ov580/test_trc/User2\sequence.24_training_dense_right.trc
DataRate	CameraRate	NumFrames	NumMarkers	Units	OrigDataRate	OrigDataStartFrame	OrigNumFrames
120	120	8	19	mm	120	57	451
Frame#	Time	ThumbCMC			ThumbMCP			ThumbIP			ThumbTip			IndexMCP			IndexPIP			IndexTip			MiddleMCP			MiddlePIP			MiddleTip			RingMCP			RingPIP			RingTip			PinkyMCP			PinkyPIP			PinkyTip			BackHand1			BackHand2			BackHand3	
		X0	Y0	Z0	X1	Y1	Z1	X2	Y2	Z2	X3	Y3	Z3	X4	Y4	Z4	X5	Y5	Z5	X6	Y6	Z6	X7	Y7	Z7	X8	Y8	Z8	X9	Y9	Z9	X10	Y10	Z10	X11	Y11	Z11	X12	Y12	Z12	X13	Y13	Z13	X14	Y14	Z14	X15	Y15	Z15	X16	Y16	Z16	X17	Y17	Z17	X18	Y18	Z18	
56	0.466667	70.9137	-17.5639	75.4608	36.0036	-33.7964	62.4381	20.0343	-58.0611	43.1476	20.4723	-82.632	29.7436	64.6307	-30.7599	-6.5434	50.902	-33.6638	-25.7358	39.2514	-41.9352	-51.3205	73.6023	-47.0481	-12.7035	57.3774	-54.3089	-36.1881	40.3365	-59.5466	-62.8836	60.9767	-78.7694	8.79517	34.1647	-89.8366	26.4099	44.427	-77.1755	58.0469	66.4067	-93.6724	26.7596	43.2938	-95.409	51.8053	57.8354	-76.5615	75.0006	114.904	-60.3979	40.9231	131.325	-51.2726	69.5699	108.251	-23.0118	52.6109	
57	0.475	77.64	-11.2843	72.5206	39.0075	-23.7608	59.2241	14.6616	-47.4041	43.3976	13.317	-69.9243	36.9935	68.0544	-29.3797	-7.59058	53.4607	-36.6037	-29.4869	38.8186	-45.2176	-52.2053	72.8305	-53.0275	-12.9558	53.6991	-55.9018	-39.1613	36.8964	-63.4573	-61.225	55.8264	-80.4833	12.1111	26.7677	-80.7875	27.1941	37.7099	-62.8187	58.8966	55.9175	-95.1337	31.8539	34.807	-82.9428	52.5943	52.6639	-64.1147	77.324	111.927	-62.5577	40.9442	129.437	-58.2371	66.6157	113.476	-27.6494	48.9049	
58	0.483333	84.4783	-8.31104	66.017	45.0966	-11.884	61.0114	15.7332	-29.1767	48.5113	7.6493	-57.1844	40.9033	69.3165	-32.9654	-8.34986	52.4303	-34.3535	-32.3844	37.4329	-41.7672	-51.704	71.1705	-54.4311	-10.8038	49.552	-60.0925	-38.4988	29.8995	-60.2757	-62.5683	49.0533	-72.9711	12.8397	20.7948	-71.6231	30.9121	31.1665	-54.3825	58.6467	48.8415	-89.6757	36.8155	27.3645	-73.512	57.2362	44.8567	-55.4495	79.2105	107.336	-69.8418	44.7246	129.866	-62.5737	70.9662	117.72	-31.342	47.2682	
59	0.491667	93.0135	-6.96306	63.6009	51.9397	-0.703344	57.2188	23.2721	-21.9846	48.2305	6.3194	-39.9313	45.2463	70.4057	-31.6678	-9.90572	52.6272	-37.0408	-29.5375	35.1076	-45.3824	-49.9396	65.4142	-56.425	-11.8315	45.758	-58.9445	-35.6383	27.1751	-61.2772	-56.4747	42.6839	-72.6898	16.2162	14.8314	-62.0653	30.8452	26.6329	-45.7984	60.1065	42.9824	-84.4083	42.1334	21.244	-64.4844	59.8724	40.1065	-45.6312	76.516	99.7653	-72.1632	43.1225	126.895	-67.456	70.8532	120.471	-38.2215	45.5562	
60	0.5	102.228	-3.06163	60.2332	63.8413	2.49778	53.8217	28.8442	-7.05158	46.7554	5.95162	-23.3653	44.7953	68.6845	-37.8326	-11.387	49.5652	-37.0497	-32.5961	32.0997	-41.773	-52.0624	64.135	-55.8475	-7.12593	42.749	-54.6747	-30.7815	17.5127	-61.3756	-55.7733	34.4223	-67.4055	19.5776	12.4457	-51.3053	31.9729	25.5292	-32.5396	60.7736	35.6599	-76.7334	48.443	20.0531	-47.3736	59.591	36.7753	-34.0458	79.9804	95.4083	-76.2817	47.4505	121.743	-72.7473	71.2957	118.576	-44.7586	41.2475	
61	0.508333	107.059	-6.86358	53.7711	72.2084	11.7868	49.3133	34.5834	3.70298	43.5137	14.8063	-11.6189	45.4134	71.3868	-37.2712	-8.5767	48.1736	-40.4789	-29.5094	31.8876	-39.2792	-47.8732	58.0732	-58.5771	-2.76724	37.5097	-53.9547	-29.9475	15.759	-54.5966	-51.135	34.5207	-59.0725	21.5455	11.5979	-41.0902	29.5317	23.7564	-20.7297	58.5268	30.6679	-64.6801	48.6796	17.3159	-40.1452	61.892	43.2039	-19.9102	78.2728	88.6313	-75.8182	50.2559	116.529	-75.5113	72.2844	119.454	-47.033	40.4738	
62	0.516667	114.043	-8.02766	50.917	80.2349	11.1059	45.5596	40.8781	7.42509	39.1644	18.6273	-1.79493	41.2968	69.7802	-39.6429	-7.37574	50.0223	-39.3572	-26.1658	31.0212	-38.1275	-49.3898	53.8614	-57.3143	-7.25532	35.6492	-51.9458	-27.7465	10.1465	-53.3191	-50.0233	32.6306	-56.6887	25.5242	12.5559	-28.7159	31.1446	29.5185	-10.2913	60.0819	29.1825	-60.913	53.2579	20.0511	-28.2596	62.0736	46.3918	-13.4241	75.6811	88.5524	-74.7502	52.3983	114.951	-78.7194	75.0362	116.265	-51.5401	40.7928	
63	0.525	116.995	-9.7923	47.5047	85.9406	10.8849	41.0247	49.251	13.7869	35.347	21.6668	3.52896	37.7603	69.2695	-40.1845	-8.62279	52.2662	-35.9724	-33.2277	28.2111	-38.3521	-48.5546	53.4438	-55.2523	-4.26631	34.573	-50.6396	-25.0696	7.54583	-50.8316	-49.9385	32.1644	-51.8692	26.4688	13.115	-25.6159	32.7253	29.7921	-5.56322	56.6168	29.172	-53.9778	53.1501	22.3031	-23.5151	58.8014	45.7359	-7.0134	76.2112	84.19	-75.583	49.8317	113.314	-77.9872	74.7712	117.135	-52.3919	38.8834	
